<svg width="171" height="171" viewBox="0 0 171 171" fill="none" xmlns="http://www.w3.org/2000/svg">
<g clip-path="url(#clip0)">
<path d="M85.5002 171C132.721 171 171 132.721 171 85.5002C171 38.2797 132.721 0 85.5002 0C38.2797 0 0 38.2797 0 85.5002C0 132.721 38.2797 171 85.5002 171Z" fill="#E24C4B"/>
<path d="M171 85.5002C171 132.525 132.525 171 85.4998 171C58.2468 171 34.2 158.71 18.7029 138.938C33.131 150.694 51.8342 157.641 72.1403 157.641C119.165 157.641 157.64 119.166 157.64 72.141C157.64 51.835 150.694 33.1317 138.937 18.7036C158.709 34.1999 171 58.2468 171 85.5002Z" fill="#D1403F"/>
<path d="M124.51 124.51C121.304 127.716 115.959 127.716 112.753 124.51L85.5003 97.2565L58.2473 124.51C55.0412 127.716 49.6971 127.716 46.491 124.51C43.2849 121.303 43.2849 115.959 46.491 112.753L73.744 85.5002L46.491 58.2472C43.2849 55.0411 43.2849 49.697 46.491 46.4909C49.6971 43.2848 55.0412 43.2848 58.2473 46.4909L85.5003 73.7439L112.753 46.4909C115.959 43.2848 121.304 43.2848 124.51 46.4909C127.716 49.697 127.716 55.0411 124.51 58.2472L97.2566 85.5002L124.51 112.753C127.716 115.959 127.716 121.303 124.51 124.51Z" fill="white"/>
</g>
<defs>
<clipPath id="clip0">
<rect width="171" height="171" fill="white"/>
</clipPath>
</defs>
</svg>
