<svg width="172" height="172" viewBox="0 0 172 172" fill="none" xmlns="http://www.w3.org/2000/svg">
<g clip-path="url(#clip0)">
<path d="M86 172C133.496 172 172 133.496 172 86C172 38.5035 133.496 0 86 0C38.5035 0 0 38.5035 0 86C0 133.496 38.5035 172 86 172Z" fill="#F8D445"/>
<path d="M158.026 39.1033L81.9692 117.848L82.1037 126.313H85.5974L167.97 59.9315C165.551 52.541 162.192 45.419 158.026 39.1033Z" fill="#F2C615"/>
<path d="M170.388 35.341L155.204 20.2908C153.188 18.2751 149.829 18.2751 147.679 20.2908L82.7753 87.3443L54.6907 59.6629C52.675 57.6472 49.3157 57.6472 47.1658 59.6629L33.7281 72.9662C31.7124 74.982 31.7124 78.3413 33.7281 80.357L78.6098 124.835C79.8193 126.045 81.4317 126.448 83.0442 126.313C84.6567 126.448 86.2691 126.044 87.4786 124.835L170.388 42.8659C172.404 40.7157 172.404 37.3564 170.388 35.341Z" fill="#F2F1EF"/>
<path d="M87.4787 124.835L170.389 42.8659C172.404 40.8502 172.404 37.4909 170.389 35.4751L167.97 33.1909L82.9099 116.773L35.8784 70.9505L33.8626 72.9663C31.8469 74.982 31.8469 78.3414 33.8626 80.3571L78.7443 124.835C79.9538 126.045 81.5663 126.448 83.1787 126.314C84.6568 126.448 86.2692 126.045 87.4787 124.835Z" fill="#E6E5E3"/>
</g>
<defs>
<clipPath id="clip0">
<rect width="172" height="172" fill="white"/>
</clipPath>
</defs>
</svg>
