<svg width="341" height="170" viewBox="0 0 341 170" fill="none" xmlns="http://www.w3.org/2000/svg">
<g clip-path="url(#clip0)">
<path fill-rule="evenodd" clip-rule="evenodd" d="M243.867 106.371C243.126 -34.4738 -3.77951 -7.36132 24.0905 130.757C11.5146 125.537 -6.53389 148.766 5.44664 167.714C103.843 167.714 181.53 167.714 279.927 167.714C282.811 161.82 284.447 155.065 284.447 147.885C284.442 125.505 267.439 104.282 243.867 106.371ZM10.1167 79.1757C12.8296 79.1757 15.0249 81.379 15.0249 84.0902C15.0249 86.8066 12.8296 89.0047 10.1167 89.0047C7.4037 89.0047 5.20848 86.8015 5.20848 84.0902C5.20848 81.379 7.4037 79.1757 10.1167 79.1757ZM251.146 90.6013C253.414 90.6013 255.252 92.7009 255.252 95.2877C255.252 97.8745 253.414 99.9741 251.146 99.9741C248.878 99.9741 247.04 97.8745 247.04 95.2877C247.04 92.7009 248.878 90.6013 251.146 90.6013Z" fill="#E4E4E4"/>
<path fill-rule="evenodd" clip-rule="evenodd" d="M138.605 42.1462C161.209 2.21879 100.054 -2.84083 88.0626 14.4116C84.6145 19.3676 82.5487 29.5594 81.3113 40.451V40.4666C79.7581 54.1369 79.5095 68.8958 79.4888 75.7699V76.2001V76.5371V76.6822V76.9881V77.351V77.4598V77.6879V77.9731V78.0042V78.2945V78.4293V78.5589V78.7973V78.8129V79.0099V79.1343V79.1965V79.3572V79.3935V79.492V79.5801V79.5957V79.6682V79.689V79.7097V79.7253L95.6268 79.2587L96.0876 83.6548L81.7307 89.2639C76.3927 86.0239 67.0889 90.6532 60.8398 104.717C54.9479 117.968 52.0589 142.763 57.0085 169.181H79.7581L79.582 141.488C82.7506 155.127 85.448 167.968 85.448 167.968H152.164C152.164 167.968 150.14 96.4956 147.898 93.5459V93.5407C146.609 91.8611 146.712 92.5713 145.522 91.9855C138.791 88.6833 120.991 83.6496 120.991 83.6496L120.603 78.5329L137.636 78.0405L137.372 64.6294L139.816 77.9782L143 77.8849L138.605 42.1462Z" fill="white"/>
<path fill-rule="evenodd" clip-rule="evenodd" d="M115.368 76.5734L123.171 83.0119C123.171 83.0119 147.836 89.9845 150.078 92.9031C152.32 95.8217 154.344 167.33 154.344 167.33H87.6329C87.6329 167.33 79.9962 129.508 74.6117 113.339C69.2272 97.1643 75.2848 92.001 75.2848 92.001L98.2777 83.0171L115.368 76.5734Z" fill="white"/>
<path fill-rule="evenodd" clip-rule="evenodd" d="M147.706 91.3478C148.897 91.9336 148.789 91.2234 150.083 92.903C151.372 94.5827 154.349 167.33 154.349 167.33H87.6329C87.6329 167.33 79.1419 126.952 74.6117 113.339C70.0815 99.7252 72.5977 96.3712 74.0215 93.7377C77.1745 95.0389 85.2461 99.269 86.7062 108.989C95.1402 169.59 164.083 133.458 147.706 91.3478Z" fill="#F4F4F4"/>
<path fill-rule="evenodd" clip-rule="evenodd" d="M87.4362 104.152C91.7697 83.3333 73.2863 80.9953 63.0195 104.08C57.1276 117.33 54.2386 142.125 59.1882 168.543H81.9377L81.7462 138.32L87.4362 104.152Z" fill="white"/>
<path fill-rule="evenodd" clip-rule="evenodd" d="M126.888 85.6661C126.888 88.1545 124.962 90.3888 121.856 91.9855C118.822 93.5407 114.638 94.5049 110.03 94.5049C105.422 94.5049 101.239 93.5407 98.2052 91.9855C95.0935 90.3888 93.1727 88.1545 93.1727 85.6661H93.9338C93.9338 87.8486 95.6993 89.8445 98.5521 91.3115C101.482 92.8149 105.542 93.748 110.03 93.748C114.519 93.748 118.578 92.8201 121.509 91.3115C124.361 89.8445 126.127 87.8486 126.127 85.6661H126.888Z" fill="#3A3C6C"/>
<path fill-rule="evenodd" clip-rule="evenodd" d="M140.784 41.5138C163.389 1.58634 102.233 -3.47328 90.2423 13.7792C80.9023 27.2162 81.6737 79.0824 81.6737 79.0824L139.816 77.408L139.552 63.9969L141.996 77.3458L145.18 77.2525L140.784 41.5138Z" fill="#3A3838"/>
<path fill-rule="evenodd" clip-rule="evenodd" d="M140.784 41.5138L140.789 41.5034C132.257 41.436 109.937 41.3634 95.6993 42.2084C89.5693 42.5765 85.8001 41.4516 83.4858 39.8134C81.3682 58.4293 81.6737 79.0773 81.6737 79.0773L139.816 77.4028L139.552 63.9917L141.996 77.3406L145.18 77.2473L140.784 41.5138ZM87.8814 32.4365C87.8814 32.4365 97.1904 37.491 114.017 32.8875C114.012 32.8875 93.9338 43.6703 87.8814 32.4365Z" fill="#282727"/>
<path fill-rule="evenodd" clip-rule="evenodd" d="M120.251 5.18408C127.478 5.7284 133.22 7.71907 133.075 9.63716C132.93 11.5553 126.955 12.6698 119.728 12.1255C112.5 11.5812 106.758 9.5905 106.903 7.67241C107.048 5.75432 113.023 4.63975 120.251 5.18408ZM136.249 11.6175C137.393 11.7056 138.278 12.338 138.221 13.0327C138.17 13.7274 137.201 14.225 136.057 14.1369C134.913 14.0488 134.028 13.4163 134.085 12.7217C134.136 12.027 135.105 11.5345 136.249 11.6175Z" fill="#282727"/>
<path fill-rule="evenodd" clip-rule="evenodd" d="M94.348 45.6195L98.2725 83.0171C100.649 91.9025 123.989 91.7418 123.171 83.0171L121.151 56.4023L94.348 45.6195Z" fill="#EBB39D"/>
<path fill-rule="evenodd" clip-rule="evenodd" d="M122.751 77.4287L121.157 56.3971L97.5632 46.9103L96.2222 48.9684C96.217 48.9684 97.8635 77.802 122.751 77.4287Z" fill="#DC8C8C"/>
<path fill-rule="evenodd" clip-rule="evenodd" d="M139.713 32.8409V49.4609C139.713 61.436 129.927 71.239 117.962 71.239C106.002 71.239 96.2119 61.4412 96.2119 49.4609V48.9684C92.9035 48.4863 90.2216 45.4121 90.2216 42.0995C90.2216 40.9124 90.5685 39.8549 91.1639 39.0099C97.7082 39.1032 128.69 38.9788 133.122 28.3359C133.127 28.3359 134.882 33.8829 139.713 32.8409Z" fill="#EBB39D"/>
<path fill-rule="evenodd" clip-rule="evenodd" d="M139.713 32.8409V35.5469C136.86 35.3707 132.33 34.1887 133.127 28.3359C133.127 28.3359 134.882 33.8829 139.713 32.8409ZM90.4598 40.4821C90.6203 39.943 90.8636 39.4505 91.1691 39.0099C97.0092 39.0928 122.296 39.0047 130.833 31.4256C126.66 35.7647 115.798 42.8927 90.4598 40.4821Z" fill="#DC8C8C"/>
<path fill-rule="evenodd" clip-rule="evenodd" d="M127.892 37.465C127.892 37.465 133.355 34.9663 139.977 35.4691C139.977 35.4691 134.214 33.0378 128.157 35.8217C128.157 35.8268 127.851 36.7807 127.892 37.465Z" fill="#282727"/>
<path fill-rule="evenodd" clip-rule="evenodd" d="M132.718 38.0197C133.453 38.0197 134.059 38.6211 134.059 39.3624V40.4614C134.059 41.1975 133.458 41.8041 132.718 41.8041C131.983 41.8041 131.377 41.2027 131.377 40.4614V39.3624C131.377 38.6211 131.977 38.0197 132.718 38.0197Z" fill="#282727"/>
<path fill-rule="evenodd" clip-rule="evenodd" d="M114.933 39.2535C115.674 39.2535 116.274 39.8548 116.274 40.5961V41.6952C116.274 42.4313 115.674 43.0378 114.933 43.0378C114.198 43.0378 113.592 42.4365 113.592 41.6952V40.591C113.592 39.8548 114.198 39.2535 114.933 39.2535Z" fill="#282727"/>
<path fill-rule="evenodd" clip-rule="evenodd" d="M139.713 45.9565C139.713 45.9565 137.424 42.6594 126.344 44.5568C115.265 46.4593 105.614 48.1545 102.751 48.6522L94.902 38.1856L94.7001 38.3359C97.294 41.7989 99.8723 45.2618 102.487 48.6988L102.161 48.7559L100.214 60.0778C97.5011 56.506 94.7881 48.5122 94.7777 48.4863L94.5396 48.5692C94.5499 48.5951 97.3613 56.8792 100.157 60.4096L100.074 60.8813C100.074 60.8813 104.946 72.9757 121.804 71.2494C138.651 69.5386 140.67 52.3536 139.713 45.9565Z" fill="#D4F9F7"/>
<path fill-rule="evenodd" clip-rule="evenodd" d="M132.438 47.491C132.438 47.491 129.891 51.0835 122.803 49.5179C122.803 49.5179 130.357 54.9663 132.438 47.491Z" fill="#B5E2DE"/>
<path fill-rule="evenodd" clip-rule="evenodd" d="M224.762 94.3701C228.205 92.9964 234.475 91.9958 238.182 100.555C243.489 112.799 247.972 167.719 247.972 167.719H229.183C229.183 167.719 227.045 160.207 224.695 149.995L223.017 167.719H168.048H152.081L149.653 154.126C148.928 159.342 148.612 164.194 149.115 168.32H122.72C122.513 163.525 122.705 157.211 123.316 150.301C123.336 150.057 123.357 149.813 123.383 149.57L123.45 148.88L123.466 148.74L123.507 148.32L123.523 148.18V148.165C123.549 147.89 123.58 147.615 123.606 147.335L123.621 147.195L123.668 146.77L123.683 146.63V146.62L123.761 145.92C123.792 145.656 123.823 145.386 123.854 145.117L123.927 144.489C123.963 144.168 124.004 143.847 124.04 143.525L124.108 143.007C124.149 142.659 124.196 142.317 124.242 141.97C127.183 119.58 134.276 95.0129 146.272 95.9461L174.898 80.451C174.743 70.591 172.584 55.4484 171.854 50.5702C168.613 49.5542 166.195 46.5059 166.138 43.0275C166.091 40.197 167.624 37.8175 169.918 36.6667C166.842 27.4909 160.515 6.1638 170.104 11.6381C170.104 11.6381 171.207 5.46914 175.416 5.46914C179.625 5.46914 178.46 7.7242 178.46 7.7242C208.935 -13.1778 239.611 12.732 221.769 37.522C221.769 37.522 221.21 30.6013 219.807 27.7397C219.331 29.7408 218.559 31.4619 217.55 32.9393C217.57 32.9601 217.586 32.9808 217.607 33.0067H217.508C217.457 33.0845 217.4 33.1622 217.348 33.2348L217.612 49.86C217.612 49.86 217.617 49.9948 217.612 50.2333C217.612 52.3224 217.312 54.339 216.758 56.2519C215.789 59.9067 213.729 64.3183 209.354 67.2162C206.18 69.7149 202.292 71.3375 198.041 71.7366L198.176 80.2903L204.301 83.5355L224.762 94.3701Z" fill="white"/>
<path fill-rule="evenodd" clip-rule="evenodd" d="M222.929 94.6293C222.929 94.6293 234.879 90.394 239.989 102.639C245.099 114.883 247.977 167.74 247.977 167.74H229.189C229.189 167.745 211.658 103.551 222.929 94.6293Z" fill="#7FB08B"/>
<path fill-rule="evenodd" clip-rule="evenodd" d="M181.846 76.2468L176.286 80.4666L140.965 99.4246L152.087 167.745H223.027L230.307 101.882C230.638 98.8854 229.189 96.1327 226.533 94.7123L199.584 80.3162L181.846 76.2468Z" fill="#8AC598"/>
<path fill-rule="evenodd" clip-rule="evenodd" d="M147.38 95.9824L140.971 99.4246L152.092 167.745H168.059C150.595 148.621 149.684 104.085 149.684 104.085C149.684 104.085 148.742 100.674 147.38 95.9824ZM221.676 125.905C221.676 125.905 221.226 138.999 205.745 148.927C205.745 148.927 225.254 147.589 221.676 125.905Z" fill="#7FB08B"/>
<path fill-rule="evenodd" clip-rule="evenodd" d="M181.846 76.2468L176.286 80.4666L168.955 84.4012C172.097 87.0503 178.942 88.8854 186.879 88.8854C195.634 88.8854 203.058 86.6511 205.652 83.5614L199.579 80.3162L181.846 76.2468Z" fill="white"/>
<path fill-rule="evenodd" clip-rule="evenodd" d="M148.529 96.112C130.383 92.3743 122.114 146.376 122.715 168.346H149.109C146.722 145.568 169.462 100.42 148.529 96.112Z" fill="#8AC598"/>
<path fill-rule="evenodd" clip-rule="evenodd" d="M124.688 141.752C124.227 144.847 123.849 147.901 123.549 150.845C130.207 147.154 141.706 140.42 140.142 138.694C138.646 137.045 130.114 139.746 124.688 141.752ZM140.774 128.139C141.965 127.802 143.119 128.16 143.357 128.937C143.596 129.715 142.824 130.617 141.633 130.954C140.443 131.291 139.288 130.933 139.05 130.156C138.812 129.378 139.583 128.476 140.774 128.139Z" fill="#7FB08B"/>
<path fill-rule="evenodd" clip-rule="evenodd" d="M173.361 40.6117C173.361 40.6117 160.588 4.64489 172.61 11.5656C172.61 11.5656 173.811 5.39657 178.02 5.39657C182.229 5.39657 181.028 7.65163 181.028 7.65163C211.834 -13.2504 242.101 12.6594 223.861 37.4494C223.861 37.4494 223.411 30.5288 222.059 27.6672C217.032 47.4028 183.809 40.1037 173.361 40.6117Z" fill="#3A3838"/>
<path fill-rule="evenodd" clip-rule="evenodd" d="M173.361 40.6117C173.361 40.6117 169.545 29.8704 168.048 21.2597C171.062 18.7662 177.622 24.8367 179.216 27.2214L185.791 33.9036C185.791 33.9036 185.108 39.6527 178.864 40.7621C176.684 40.6169 174.805 40.5391 173.361 40.6117ZM181.976 23.6807C179.346 15.4795 171.678 19.8445 171.678 19.8445C178.445 20.1452 181.976 23.6807 181.976 23.6807Z" fill="#282727"/>
<path fill-rule="evenodd" clip-rule="evenodd" d="M175.685 10.1607C175.685 10.1607 176.586 6.32453 179.294 6.39711C182.002 6.46968 180.272 9.33127 180.272 9.33127C180.272 9.33127 208.831 -6.24157 222.732 8.88026C222.732 8.88026 217.172 -1.57594 179.599 11.5915C179.599 11.5915 181.515 8.80768 178.698 8.54329C175.872 8.27891 175.685 10.1607 175.685 10.1607Z" fill="#282727"/>
<path fill-rule="evenodd" clip-rule="evenodd" d="M173.511 49.015C173.511 49.015 176.291 68.5795 176.291 80.4665C176.291 80.4665 186.811 85.1322 199.584 80.3162V56.086C199.584 56.086 181.551 45.7024 173.511 49.015Z" fill="#EBB39D"/>
<path fill-rule="evenodd" clip-rule="evenodd" d="M199.584 77.1954V56.086C199.584 56.086 191.347 51.3426 183.524 49.2897C180.832 51.9543 179.195 55.5831 179.195 59.6889C179.195 68.6676 187.008 76.5111 196.654 77.2109C197.653 77.2835 198.631 77.2783 199.584 77.1954Z" fill="#DC8C8C"/>
<path fill-rule="evenodd" clip-rule="evenodd" d="M179.216 27.3146H219.502V49.8859C219.502 61.9699 209.629 71.8559 197.56 71.8559C185.838 71.8559 176.193 62.535 175.644 50.9279H175.618C171.492 50.7102 168.142 47.185 168.142 43.0534C168.142 38.9217 171.487 35.7439 175.618 35.9564C175.629 35.9409 178.471 33.0274 179.216 27.3146Z" fill="#EBB39D"/>
<path fill-rule="evenodd" clip-rule="evenodd" d="M179.216 27.3146H219.502L180.8 29.0772C179.822 33.0637 175.618 35.9564 175.618 35.9564C175.628 35.9409 178.471 33.0274 179.216 27.3146Z" fill="#DC8C8C"/>
<path fill-rule="evenodd" clip-rule="evenodd" d="M175.613 50.9279C171.486 50.7102 168.137 47.185 168.137 43.0534C168.137 41.6122 168.54 40.2903 169.244 39.1861C174.986 37.6412 175.199 42.9756 175.199 42.9756C171.957 40.6635 170.508 46.8947 175.608 47.5116V50.9279H175.613Z" fill="#DC8C8C"/>
<path fill-rule="evenodd" clip-rule="evenodd" d="M185.082 33.0275H196.141C196.141 33.0275 196.395 31.3219 194.95 29.6216C194.95 29.6216 187.847 29.492 185.082 33.0275ZM196.188 29.8549C198.678 31.3686 196.571 32.9031 196.571 32.9031C196.949 31.0057 196.188 29.8549 196.188 29.8549Z" fill="#282727"/>
<path fill-rule="evenodd" clip-rule="evenodd" d="M219.766 33.0275H208.702C208.702 33.0275 208.448 31.3219 209.892 29.6216C209.898 29.6216 217.001 29.492 219.766 33.0275ZM208.66 29.8549C206.17 31.3686 208.277 32.9031 208.277 32.9031C207.899 31.0057 208.66 29.8549 208.66 29.8549Z" fill="#282727"/>
<path fill-rule="evenodd" clip-rule="evenodd" d="M193.413 36.1846C193.594 36.1949 193.77 36.2416 193.925 36.309C193.785 36.4956 193.703 36.7237 193.687 36.9725C193.651 37.6309 194.132 38.2012 194.774 38.2789L194.836 39.3002C194.883 40.1141 194.081 40.7465 193.268 40.6947C192.455 40.648 191.89 39.943 191.875 39.1239L191.844 37.5791C191.828 36.7652 192.6 36.1379 193.413 36.1846Z" fill="#282727"/>
<path fill-rule="evenodd" clip-rule="evenodd" d="M213.377 36.1846C213.558 36.1846 213.734 36.2157 213.894 36.2779C213.77 36.4749 213.693 36.703 213.693 36.957C213.693 37.6154 214.205 38.1597 214.857 38.196V39.2898C214.857 40.1089 214.19 40.7776 213.372 40.7776C212.554 40.7776 211.886 40.1089 211.886 39.2898V37.6724C211.891 36.8533 212.559 36.1846 213.377 36.1846Z" fill="#282727"/>
<path fill-rule="evenodd" clip-rule="evenodd" d="M181.81 47.7346C181.81 47.7346 188.271 48.9373 195.188 47.2836C202.1 45.6299 207.21 44.2717 212.17 47.1332C217.13 49.9896 219.502 49.886 219.502 49.886C219.502 49.886 219.838 70.4096 199.211 70.3318C180.624 70.2644 177.994 57.4702 177.653 54.9404L175.468 51.0109L175.763 50.845L177.704 54.3391L181.406 48.3878L181.323 48.3359L181.329 48.2374C181.329 48.2063 181.681 36.9051 173.666 36.2779L173.692 35.9357C181.272 36.5319 181.66 46.1949 181.67 47.9627L181.81 47.7346Z" fill="white"/>
<path fill-rule="evenodd" clip-rule="evenodd" d="M202.064 49.0098C202.064 49.0098 206.273 52.395 210.405 48.7817C209.028 54.7797 200.594 54.1109 202.064 49.0098Z" fill="#E4E4E4"/>
<path fill-rule="evenodd" clip-rule="evenodd" d="M244.721 39.2379C243.105 38.1338 242.054 36.2519 242.117 34.1524L242.199 31.1768C242.267 28.7455 243.799 26.6822 245.927 25.8165C246.844 24.7641 248.008 24.1317 249.396 24.168L253.952 24.2924C254.356 22.9186 255.65 21.9233 257.141 21.9648L278.105 22.535C279.596 22.5765 280.833 23.6392 281.165 25.0337L284.276 25.1166C285.462 25.1477 286.56 26.1483 286.715 27.3406L289.008 44.6656C289.345 47.2162 288.63 49.5023 287.201 51.156C287.667 51.3064 288.144 51.4878 288.62 51.7004C288.62 51.7004 297.458 58.2478 299.151 61.607C299.151 61.607 313.617 65.9927 336.703 79.3416C341.497 82.1151 341.021 87.2421 338.028 91.2286L327.813 104.837C325.457 107.973 320.622 107.621 317.629 105.08L293.968 84.9715C293.968 84.9715 289.107 85.1477 283.065 84.479C282.614 87.9368 279.596 90.5806 276.039 90.4821L271.302 90.3525C267.507 90.2488 264.493 87.0658 264.597 83.2659L264.685 80.0259C262.246 79.7356 260.222 77.7864 259.937 75.2411C259.839 74.3701 259.958 73.52 260.248 72.7475C258.13 71.6796 256.888 69.2846 257.369 66.8481C257.473 66.3297 257.644 65.8476 257.877 65.4018C255.107 64.7019 253.326 61.9233 253.89 59.0876C254.377 56.6407 256.463 54.8937 258.84 54.733C257.488 53.494 256.789 51.5967 257.173 49.6734C257.623 47.3976 259.456 45.7284 261.625 45.3758L261.578 44.733C261.537 44.1524 261.589 43.5925 261.729 43.069C260.714 42.5817 259.43 42.2654 257.815 42.224L248.915 41.9803C246.989 41.944 245.606 40.8554 244.721 39.2379Z" fill="white"/>
<path fill-rule="evenodd" clip-rule="evenodd" d="M263.189 47.8072L272.622 49.4142C275.19 49.8497 277.038 52.0633 277.126 54.5775C280.357 52.395 284.193 51.6382 288.423 53.4059C288.423 53.4059 297.437 59.7097 299.223 63.0223C299.223 63.0223 313.803 67.0088 337.246 79.7253C342.113 82.3639 341.777 87.5065 338.898 91.5708L329.056 105.454C326.788 108.657 321.942 108.434 318.882 105.972L294.683 86.5163C294.683 86.5163 280.828 87.3925 270.727 83.774C269.805 83.4422 269.055 82.8564 268.47 82.0736L266.513 82.3484C263.561 82.7631 260.812 80.6791 260.398 77.7242C260.279 76.8533 260.372 76.0031 260.641 75.2203C258.498 74.2095 257.188 71.8507 257.602 69.4039C257.69 68.8855 257.851 68.3982 258.068 67.9471C255.283 67.3251 253.424 64.5931 253.911 61.747C254.33 59.2846 256.365 57.4858 258.741 57.2577C257.359 56.055 256.608 54.1783 256.934 52.2447C257.442 49.3002 260.253 47.3043 263.189 47.8072Z" fill="#7FB08B"/>
<path fill-rule="evenodd" clip-rule="evenodd" d="M247.418 28.1959C250.69 28.1959 253.367 30.8761 253.367 34.1524V37.128C253.367 40.4043 250.69 43.0845 247.418 43.0845C244.146 43.0845 241.469 40.4043 241.469 37.128V34.1524C241.469 30.8761 244.146 28.1959 247.418 28.1959Z" fill="#2778AA"/>
<path fill-rule="evenodd" clip-rule="evenodd" d="M256.153 24.5308H277.121C278.897 24.5308 280.352 25.9875 280.352 27.7657V31.0005H252.922V27.7657C252.922 25.9875 254.377 24.5308 256.153 24.5308Z" fill="#CA7849"/>
<path fill-rule="evenodd" clip-rule="evenodd" d="M266.031 41.83C268.972 41.83 271.617 44.2405 271.913 47.1851L272.518 53.297C272.808 56.2416 270.639 58.6521 267.698 58.6521C264.757 58.6521 262.112 56.2416 261.817 53.297L261.211 47.1851C260.921 44.2405 263.085 41.83 266.031 41.83Z" fill="#2778AA"/>
<path fill-rule="evenodd" clip-rule="evenodd" d="M248.474 26.9466H274.941C283.805 26.9466 283.805 38.4137 283.805 43.774C283.805 54.1265 283.805 74.8315 283.805 85.6195C283.805 89.4194 280.709 92.5194 276.909 92.5194H272.171C268.376 92.5194 265.275 89.4194 265.275 85.6143V53.2556C265.275 53.2556 266.28 44.7693 257.374 44.7693H248.469C240.574 44.7797 241.288 26.9466 248.474 26.9466Z" fill="#CA7849"/>
<path fill-rule="evenodd" clip-rule="evenodd" d="M268.848 91.664C266.72 90.4873 265.275 88.2166 265.275 85.6194V53.2607C265.275 53.2607 266.28 44.7745 257.374 44.7745H248.469C244.591 44.7745 242.79 40.4769 242.81 36.1016C243.085 36.7288 244.405 39.3312 247.377 39.3312C250.752 39.3312 263.391 39.3312 263.391 39.3312C263.391 39.3312 268.848 39.6163 268.848 45.3706V58.6988L283.8 67.3457V80.6946C281.201 79.663 278.679 78.1855 276.407 76.5992H276.401C276.288 76.5111 272.72 73.6651 272.322 70.7205C272.322 70.7205 269.666 70.8501 268.837 70.3006V91.664H268.848Z" fill="#AA4F3B"/>
<path fill-rule="evenodd" clip-rule="evenodd" d="M280.383 29.1343C283.805 32.7268 283.805 39.8652 283.805 43.7688V57.6879C283.199 57.8227 282.563 57.8953 281.9 57.8953C276.764 57.8953 271.892 53.691 271.069 48.5485L268.304 31.2908C268.112 30.1037 268.93 29.1343 270.111 29.1343H280.383Z" fill="#AA4F3B"/>
<path fill-rule="evenodd" clip-rule="evenodd" d="M280.787 55.7076C285.923 55.7076 289.448 51.5034 288.625 46.3608L285.861 29.1032C285.669 27.916 284.545 26.9466 283.36 26.9466H268.998C267.812 26.9466 266.999 27.916 267.191 29.1032L269.956 46.3608C270.779 51.5034 275.651 55.7076 280.787 55.7076Z" fill="#F4F4F4"/>
<path fill-rule="evenodd" clip-rule="evenodd" d="M279.85 48.704C283.66 48.704 286.275 45.5832 285.659 41.7678L283.893 30.8191C283.753 29.9378 282.915 29.2172 282.034 29.2172H271.374C270.494 29.2172 269.893 29.9378 270.033 30.8191L271.799 41.7678C272.42 45.5832 276.039 48.704 279.85 48.704Z" fill="#2778AA"/>
<path fill-rule="evenodd" clip-rule="evenodd" d="M279.296 48.6781C282.785 48.6781 285.198 45.8165 284.618 42.3225L282.909 32.0529C282.775 31.2494 282.014 30.5858 281.206 30.5858H271.441C270.634 30.5858 270.08 31.2442 270.214 32.0529L271.923 42.3225C272.503 45.8113 275.806 48.6781 279.296 48.6781Z" fill="#509BD3"/>
<path fill-rule="evenodd" clip-rule="evenodd" d="M281.455 53.831C282.759 53.831 283.826 52.929 283.826 51.8196C283.826 50.7102 282.759 49.8082 281.455 49.8082C280.15 49.8082 279.083 50.7102 279.083 51.8196C279.088 52.929 280.15 53.831 281.455 53.831Z" fill="#2778AA"/>
<path fill-rule="evenodd" clip-rule="evenodd" d="M280.823 52.7527C281.781 52.7527 282.558 52.0891 282.558 51.2804C282.558 50.4665 281.776 49.8082 280.823 49.8082C279.865 49.8082 279.089 50.4717 279.089 51.2804C279.089 52.0943 279.865 52.7527 280.823 52.7527Z" fill="#F4F4F4"/>
<path fill-rule="evenodd" clip-rule="evenodd" d="M283.805 61.0835L267.879 54.6967C262.293 52.6853 259.513 63.7636 273.683 68.367C273.683 68.367 280.569 79.5905 285.995 77.2628C295.641 74.733 293.668 64.0798 283.805 61.0835Z" fill="#8AC598"/>
<path fill-rule="evenodd" clip-rule="evenodd" d="M287.932 14.0695H299.363V15.7335H287.932V14.0695ZM287.932 17.3717H292.182V19.0358H287.932V17.3717Z" fill="#218085"/>
<path fill-rule="evenodd" clip-rule="evenodd" d="M16.3658 115.993H27.7975V117.657H16.3658V115.993ZM16.3658 119.295H20.6165V120.959H16.3658V119.295Z" fill="#218085"/>
<path fill-rule="evenodd" clip-rule="evenodd" d="M0 167.719H26.6689C27.6836 163.442 32.8921 161.773 36.2057 164.64C37.7485 160.057 42.0768 156.755 47.1766 156.755C53.3584 156.755 58.4116 161.607 58.7378 167.719H227.993C227.889 162.421 232.155 158.077 237.441 158.077C242.728 158.077 246.994 162.431 246.89 167.719C247.201 165.179 249.36 163.209 251.98 163.209C254.599 163.209 256.763 165.179 257.069 167.719H281.838V170.005H0V167.719ZM61.6889 150.788C64.3915 150.788 64.3915 154.899 61.6889 154.899C58.9863 154.899 58.9863 150.788 61.6889 150.788ZM305.897 170H291.012V167.714H305.897V170Z" fill="#218085"/>
</g>
<defs>
<clipPath id="clip0">
<rect width="341" height="170" fill="white"/>
</clipPath>
</defs>
</svg>
