<svg width="155" height="53" viewBox="0 0 155 53" fill="none" xmlns="http://www.w3.org/2000/svg">
<rect x="0.81543" width="154.185" height="53" rx="26.5" fill="#E76963"/>
<path d="M30.588 28.684C30.588 29.116 30.48 29.516 30.264 29.884C30.048 30.244 29.728 30.536 29.304 30.76C28.88 30.976 28.364 31.084 27.756 31.084C27.156 31.084 26.62 30.984 26.148 30.784C25.676 30.576 25.296 30.28 25.008 29.896C24.728 29.512 24.568 29.064 24.528 28.552H26.328C26.368 28.896 26.504 29.184 26.736 29.416C26.976 29.64 27.292 29.752 27.684 29.752C28.036 29.752 28.304 29.66 28.488 29.476C28.68 29.284 28.776 29.04 28.776 28.744C28.776 28.48 28.7 28.264 28.548 28.096C28.396 27.92 28.204 27.78 27.972 27.676C27.74 27.572 27.42 27.452 27.012 27.316C26.484 27.14 26.052 26.968 25.716 26.8C25.38 26.624 25.092 26.372 24.852 26.044C24.62 25.716 24.504 25.288 24.504 24.76C24.504 24.032 24.764 23.46 25.284 23.044C25.812 22.62 26.508 22.408 27.372 22.408C28.268 22.408 28.98 22.624 29.508 23.056C30.044 23.488 30.348 24.064 30.42 24.784H28.596C28.548 24.48 28.42 24.232 28.212 24.04C28.004 23.84 27.72 23.74 27.36 23.74C27.048 23.74 26.796 23.824 26.604 23.992C26.412 24.152 26.316 24.388 26.316 24.7C26.316 24.948 26.388 25.156 26.532 25.324C26.684 25.484 26.872 25.616 27.096 25.72C27.328 25.824 27.64 25.94 28.032 26.068C28.576 26.26 29.016 26.44 29.352 26.608C29.696 26.776 29.988 27.028 30.228 27.364C30.468 27.7 30.588 28.14 30.588 28.684ZM38.1944 24.352V31H36.5024V29.656C36.3264 30.104 36.0344 30.456 35.6264 30.712C35.2264 30.96 34.7624 31.084 34.2344 31.084C33.4664 31.084 32.8544 30.832 32.3984 30.328C31.9424 29.824 31.7144 29.12 31.7144 28.216V24.352H33.3944V28.024C33.3944 28.552 33.5304 28.964 33.8024 29.26C34.0744 29.548 34.4424 29.692 34.9064 29.692C35.3944 29.692 35.7824 29.536 36.0704 29.224C36.3584 28.912 36.5024 28.464 36.5024 27.88V24.352H38.1944ZM43.6928 24.256C44.4608 24.256 45.0728 24.508 45.5288 25.012C45.9848 25.516 46.2128 26.224 46.2128 27.136V31H44.5328V27.328C44.5328 26.8 44.3968 26.392 44.1248 26.104C43.8528 25.808 43.4808 25.66 43.0088 25.66C42.5288 25.66 42.1448 25.816 41.8568 26.128C41.5688 26.44 41.4248 26.888 41.4248 27.472V31H39.7328V22.12H41.4248V25.684C41.6008 25.236 41.8888 24.888 42.2888 24.64C42.6968 24.384 43.1648 24.256 43.6928 24.256ZM54.0616 24.352V31H52.3696V29.656C52.1936 30.104 51.9016 30.456 51.4936 30.712C51.0936 30.96 50.6296 31.084 50.1016 31.084C49.3336 31.084 48.7216 30.832 48.2656 30.328C47.8096 29.824 47.5816 29.12 47.5816 28.216V24.352H49.2616V28.024C49.2616 28.552 49.3976 28.964 49.6696 29.26C49.9416 29.548 50.3096 29.692 50.7736 29.692C51.2616 29.692 51.6496 29.536 51.9376 29.224C52.2256 28.912 52.3696 28.464 52.3696 27.88V24.352H54.0616ZM63.9733 22.528V23.872H61.6333V31H59.9413V23.872H57.6133V22.528H63.9733ZM71.2647 24.352V31H69.5727V29.656C69.3967 30.104 69.1047 30.456 68.6967 30.712C68.2967 30.96 67.8327 31.084 67.3047 31.084C66.5367 31.084 65.9247 30.832 65.4687 30.328C65.0127 29.824 64.7847 29.12 64.7847 28.216V24.352H66.4647V28.024C66.4647 28.552 66.6007 28.964 66.8727 29.26C67.1447 29.548 67.5127 29.692 67.9767 29.692C68.4647 29.692 68.8527 29.536 69.1407 29.224C69.4287 28.912 69.5727 28.464 69.5727 27.88V24.352H71.2647ZM76.7752 24.268C77.3352 24.268 77.8392 24.404 78.2872 24.676C78.7352 24.948 79.0832 25.344 79.3312 25.864C79.5872 26.376 79.7152 26.98 79.7152 27.676C79.7152 28.372 79.5872 28.98 79.3312 29.5C79.0832 30.012 78.7352 30.404 78.2872 30.676C77.8392 30.948 77.3352 31.084 76.7752 31.084C76.2152 31.084 75.7352 30.952 75.3352 30.688C74.9432 30.416 74.6632 30.056 74.4952 29.608V31H72.8032V22.12H74.4952V25.732C74.6632 25.284 74.9432 24.928 75.3352 24.664C75.7352 24.4 76.2152 24.268 76.7752 24.268ZM76.2472 25.744C75.7352 25.744 75.3112 25.92 74.9752 26.272C74.6472 26.616 74.4832 27.084 74.4832 27.676C74.4832 28.26 74.6472 28.728 74.9752 29.08C75.3112 29.424 75.7352 29.596 76.2472 29.596C76.7752 29.596 77.1992 29.428 77.5192 29.092C77.8392 28.748 77.9992 28.276 77.9992 27.676C77.9992 27.076 77.8392 26.604 77.5192 26.26C77.1992 25.916 76.7752 25.744 76.2472 25.744ZM87.2725 24.352V31H85.5805V29.656C85.4045 30.104 85.1125 30.456 84.7045 30.712C84.3045 30.96 83.8405 31.084 83.3125 31.084C82.5445 31.084 81.9325 30.832 81.4765 30.328C81.0205 29.824 80.7925 29.12 80.7925 28.216V24.352H82.4725V28.024C82.4725 28.552 82.6085 28.964 82.8805 29.26C83.1525 29.548 83.5205 29.692 83.9845 29.692C84.4725 29.692 84.8605 29.536 85.1485 29.224C85.4365 28.912 85.5805 28.464 85.5805 27.88V24.352H87.2725ZM92.771 24.256C93.539 24.256 94.151 24.508 94.607 25.012C95.063 25.516 95.291 26.224 95.291 27.136V31H93.611V27.328C93.611 26.8 93.475 26.392 93.203 26.104C92.931 25.808 92.559 25.66 92.087 25.66C91.607 25.66 91.223 25.816 90.935 26.128C90.647 26.44 90.503 26.888 90.503 27.472V31H88.811V22.12H90.503V25.684C90.679 25.236 90.967 24.888 91.367 24.64C91.775 24.384 92.243 24.256 92.771 24.256ZM98.961 24.028H101.073L103.701 26.728L101.073 29.416H98.961L101.577 26.728L98.961 24.028ZM110.264 22.204C110.84 22.204 111.332 22.304 111.74 22.504C112.156 22.704 112.468 22.98 112.676 23.332C112.892 23.684 113 24.076 113 24.508C113 25.052 112.852 25.5 112.556 25.852C112.26 26.196 111.868 26.408 111.38 26.488V26.548C112.564 26.9 113.156 27.596 113.156 28.636C113.156 29.364 112.912 29.956 112.424 30.412C111.936 30.86 111.248 31.084 110.36 31.084C109.416 31.084 108.664 30.852 108.104 30.388C107.544 29.916 107.232 29.208 107.168 28.264H108.824C108.864 28.696 109.004 29.04 109.244 29.296C109.492 29.544 109.84 29.668 110.288 29.668C110.672 29.668 110.972 29.564 111.188 29.356C111.404 29.14 111.512 28.86 111.512 28.516C111.512 28.108 111.356 27.796 111.044 27.58C110.732 27.364 110.272 27.256 109.664 27.256H109.316V25.876H109.664C110.784 25.892 111.344 25.504 111.344 24.712C111.344 24.368 111.244 24.1 111.044 23.908C110.844 23.708 110.572 23.608 110.228 23.608C109.868 23.608 109.572 23.724 109.34 23.956C109.108 24.18 108.976 24.496 108.944 24.904H107.288C107.336 24.04 107.616 23.376 108.128 22.912C108.64 22.44 109.352 22.204 110.264 22.204ZM119.668 23.716L116.572 31H114.82L117.952 23.908H114.028V22.456H119.668V23.716ZM121.766 29.908C121.958 30.34 122.054 30.776 122.054 31.216C122.054 31.712 121.922 32.12 121.658 32.44C121.402 32.76 121.002 32.92 120.458 32.92V32.272C120.666 32.272 120.818 32.22 120.914 32.116C121.01 32.02 121.058 31.844 121.058 31.588V31.468H120.29V29.908H121.766ZM122.964 29.296V27.892L127.02 22.432H128.832V27.832H129.936V29.296H128.832V31H127.128V29.296H122.964ZM127.26 24.412L124.692 27.832H127.26V24.412Z" fill="white"/>
</svg>
